{
  "accessors": [
    {
      "bufferView": 0,
      "componentType": 5126,
      "count": 65535,
      "max": [
        8.7386741638183594,
        11.072373390197754,
        10.947406768798828
      ],
      "min": [
        -8.528386116027832,
        -2.2407729625701904,
        -0.28639501333236694
      ],
      "type": "VEC3"
    },
    {
      "bufferView": 1,
      "componentType": 5126,
      "count": 65535,
      "max": [
        0.93333333730697632,
        0.95686274766921997,
        0.95686274766921997,
        1
      ],
      "min": [
        0,
        0,
        0,
        1
      ],
      "type": "VEC4"
    },
    {
      "bufferView": 0,
      "byteOffset": 786420,
      "componentType": 5126,
      "count": 43141,
      "max": [
        8.7925481796264648,
        2.1550490856170654,
        11.883245468139648
      ],
      "min": [
        -1.1391819715499878,
        -6.6447429656982422,
        0.22777700424194336
      ],
      "type": "VEC3"
    },
    {
      "bufferView": 1,
      "byteOffset": 1048560,
      "componentType": 5126,
      "count": 43141,
      "max": [
        0.99215686321258545,
        0.99607843160629272,
        0.99607843160629272,
        1
      ],
      "min": [
        0,
        0,
        0,
        1
      ],
      "type": "VEC4"
    }
  ],
  "asset": {
    "extras": {
      "author": "Loïc Norgeot (https://sketchfab.com/norgeotloic)",
      "license": "CC-BY-4.0 (http://creativecommons.org/licenses/by/4.0/)",
      "source": "https://sketchfab.com/3d-models/devils-dance-b4757585b30e4075800b985f47d5716f",
      "title": "Devil's Dance"
    },
    "generator": "Sketchfab-5.84.2",
    "version": "2.0"
  },
  "bufferViews": [
    {
      "buffer": 0,
      "byteLength": 1304112,
      "byteOffset": 0,
      "byteStride": 12,
      "name": "floatBufferViews",
      "target": 34962
    },
    {
      "buffer": 0,
      "byteLength": 1738816,
      "byteOffset": 1304112,
      "byteStride": 16,
      "name": "floatBufferViews",
      "target": 34962
    }
  ],
  "buffers": [
    {
      "byteLength": 3042928,
      "uri": "devil.bin"
    }
  ],
  "extensionsUsed": [
    "KHR_materials_unlit"
  ],
  "materials": [
    {
      "doubleSided": true,
      "extensions": {
        "KHR_materials_unlit": {}
      },
      "name": "Scene_-_Root",
      "pbrMetallicRoughness": {
        "baseColorFactor": [
          1,
          1,
          1,
          1
        ],
        "metallicFactor": 0,
        "roughnessFactor": 1
      }
    }
  ],
  "meshes": [
    {
      "primitives": [
        {
          "attributes": {
            "COLOR_0": 1,
            "POSITION": 0
          },
          "material": 0,
          "mode": 0
        }
      ]
    },
    {
      "primitives": [
        {
          "attributes": {
            "COLOR_0": 3,
            "POSITION": 2
          },
          "material": 0,
          "mode": 0
        }
      ]
    }
  ],
  "nodes": [
    {
      "children": [
        1
      ],
      "name": "RootNode (gltf orientation matrix)",
      "rotation": [
        -0.70710678118654746,
        -0,
        -0,
        0.70710678118654757
      ]
    },
    {
      "children": [
        2
      ],
      "matrix": [
        0.9999050498008728,
        -2.1684043449710089e-19,
        -0.013780143111944199,
        0,
        0.0010342798195779324,
        0.99717932939529419,
        0.075048685073852539,
        0,
        0.013741273432970047,
        -0.075055807828903198,
        0.99708467721939087,
        0,
        -0.081955008208751678,
        0.44145050644874573,
        -0.1474190354347229,
        1
      ],
      "name": "RootNode (model correction matrix)"
    },
    {
      "children": [
        3,
        4
      ],
      "name": "Geode"
    },
    {
      "mesh": 0,
      "name": ""
    },
    {
      "mesh": 1,
      "name": ""
    }
  ],
  "scene": 0,
  "scenes": [
    {
      "name": "OSG_Scene",
      "nodes": [
        0
      ]
    }
  ]
}

